<svg preserveAspectRatio="xMidYMid meet" viewBox="130.6575 130.68 666 486.00000000000006" xmlns="http://www.w3.org/2000/svg" version="1.0" style="max-height: 500px" width="666" height="486.00000000000006">  <g stroke="none" fill="#050505" transform="translate(0.000000,900.000000) scale(0.100000,-0.100000)"> <path d="M1571 7570 c-39 -17 -90 -88 -91 -129 0 -13 11 -49 24 -80 13 -31 38 -92 56 -136 33 -83 94 -219 110 -245 31 -48 50 -92 50 -115 0 -21 -5 -25 -30 -25 -45 0 -96 -36 -132 -92 -24 -36 -23 -57 5 -131 13 -34 30 -80 37 -102 7 -22 26 -69 42 -105 92 -203 122 -254 210 -348 32 -34 58 -71 58 -80 0 -10 -11 -33 -25 -52 -41 -56 -36 -103 26 -235 15 -33 35 -76 44 -95 8 -19 32 -62 52 -95 19 -33 41 -69 47 -80 41 -71 93 -139 152 -201 92 -93 273 -214 323 -214 10 0 24 -7 31 -15 7 -8 18 -15 25 -15 10 0 267 -123 368 -176 15 -8 39 -20 55 -28 15 -8 65 -34 112 -56 47 -23 105 -52 130 -65 25 -13 72 -35 105 -50 33 -15 68 -31 77 -36 10 -5 63 -27 117 -49 98 -40 182 -52 196 -30 3 6 10 10 16 10 11 0 3 -63 -17 -138 -13 -47 -12 -109 3 -135 6 -11 52 53 74 103 6 14 15 32 19 41 4 8 25 67 45 130 21 63 44 128 51 146 8 17 14 42 14 55 0 12 7 32 15 42 8 11 15 32 15 47 0 14 7 32 15 39 8 7 15 27 15 44 0 17 7 40 15 50 8 11 15 32 15 46 0 14 7 35 15 46 8 10 15 26 15 34 0 8 14 42 30 74 37 74 39 109 5 124 -23 10 -142 99 -173 129 -7 7 -17 13 -21 13 -4 0 -20 12 -37 28 -57 54 -186 152 -200 152 -3 0 -58 41 -124 90 -66 50 -123 90 -129 90 -10 0 -21 24 -21 49 0 33 44 41 238 42 103 0 252 5 332 10 80 6 194 14 255 17 99 6 110 9 113 27 2 11 10 34 18 52 8 17 14 38 14 46 0 9 6 28 14 44 15 31 30 73 50 143 20 68 57 172 73 202 7 14 13 34 13 45 0 10 7 27 15 37 8 11 15 32 15 46 0 14 7 35 15 46 8 10 15 33 15 50 0 18 7 45 15 60 8 16 15 40 15 54 1 48 26 115 45 115 17 0 22 -12 61 -145 9 -30 22 -71 29 -90 7 -19 18 -51 25 -70 6 -19 15 -52 20 -73 4 -21 13 -44 19 -50 6 -6 11 -20 11 -32 0 -12 7 -30 15 -41 8 -10 15 -27 15 -37 0 -11 6 -33 14 -50 8 -18 24 -65 36 -106 12 -40 32 -97 44 -125 13 -29 29 -75 36 -103 l13 -51 156 -6 c86 -3 290 -9 454 -12 l297 -6 0 -27 c-1 -19 -11 -33 -43 -53 -101 -65 -191 -130 -220 -158 -17 -16 -36 -30 -43 -30 -7 0 -17 -6 -21 -13 -4 -8 -46 -42 -93 -77 -47 -36 -89 -70 -93 -77 -4 -7 -14 -13 -20 -13 -7 0 -27 -13 -45 -29 -17 -16 -59 -50 -92 -76 -33 -25 -60 -51 -60 -57 0 -6 8 -27 19 -47 21 -41 39 -91 51 -140 5 -18 13 -38 19 -44 6 -6 11 -20 11 -30 0 -10 6 -33 13 -50 8 -18 30 -81 50 -142 55 -170 58 -178 73 -208 8 -16 14 -35 14 -43 0 -21 77 -184 105 -220 14 -18 25 -40 25 -48 0 -26 20 -18 31 12 13 34 5 91 -21 145 -19 39 -27 107 -13 107 3 0 15 -8 26 -17 31 -29 117 -21 177 16 8 5 86 44 173 86 86 43 160 81 163 86 3 5 13 9 23 9 10 0 44 13 77 29 65 31 157 75 304 144 427 201 505 241 576 298 59 47 151 151 211 239 40 59 122 219 151 295 13 33 30 75 38 93 21 48 17 92 -11 137 -26 42 -32 80 -15 90 25 16 161 180 180 218 12 23 33 62 46 87 28 51 57 120 109 264 30 85 34 104 25 135 -5 21 -20 47 -32 58 -28 26 -92 53 -125 53 -22 0 -24 3 -18 27 3 14 43 101 87 192 44 91 84 175 89 186 4 11 22 53 40 94 43 102 38 146 -22 202 -42 40 -46 41 -97 36 -29 -3 -67 -15 -86 -26 -18 -12 -39 -21 -46 -21 -7 0 -225 -106 -485 -235 -259 -129 -483 -235 -497 -235 -21 0 -27 6 -32 35 -8 41 -25 55 -33 26 -5 -19 -73 -68 -127 -92 -12 -5 -34 -18 -51 -29 -16 -11 -36 -23 -44 -26 -16 -8 -188 -109 -211 -124 -8 -6 -22 -13 -30 -16 -8 -3 -28 -12 -45 -21 -16 -8 -111 -57 -210 -108 -188 -96 -253 -131 -345 -184 -30 -18 -68 -39 -85 -47 -16 -8 -43 -23 -60 -34 -16 -10 -57 -32 -90 -48 -34 -17 -82 -46 -109 -67 -79 -60 -115 -64 -116 -11 -1 12 -7 32 -15 46 -22 39 -19 78 8 85 42 12 46 14 247 114 30 15 87 42 125 60 39 18 77 37 85 42 8 5 22 12 30 15 8 4 71 33 140 66 115 55 188 89 295 138 22 10 92 43 155 73 63 31 127 59 143 62 15 4 27 11 27 16 0 5 5 9 12 9 6 0 43 15 82 34 39 19 78 37 86 40 30 12 74 42 78 54 3 9 -17 12 -70 12 -58 0 -93 -7 -168 -34 -89 -32 -145 -55 -180 -75 -27 -15 -164 -78 -220 -101 -30 -13 -75 -32 -100 -43 -57 -25 -456 -218 -535 -259 -33 -17 -89 -46 -125 -64 -83 -43 -97 -52 -143 -91 -20 -18 -43 -33 -50 -33 -18 0 -58 83 -92 188 -15 45 -41 103 -58 128 -42 60 -108 108 -136 99 -34 -10 -105 -88 -120 -131 -7 -21 -21 -57 -31 -79 -10 -22 -28 -72 -39 -111 -29 -101 -39 -106 -107 -58 -30 21 -72 49 -92 61 -54 32 -626 313 -638 313 -3 0 -31 12 -62 26 -111 51 -138 63 -192 84 -30 12 -66 27 -80 35 -14 7 -36 18 -50 24 -14 7 -41 21 -60 31 -19 11 -82 34 -140 53 -86 28 -115 34 -162 30 -32 -3 -63 -12 -69 -19 -9 -11 -7 -14 9 -14 11 0 25 -7 32 -15 7 -8 21 -15 31 -15 10 0 35 -9 56 -19 74 -37 148 -70 175 -76 15 -4 32 -13 39 -21 6 -8 17 -14 24 -14 7 0 35 -11 62 -24 97 -49 261 -126 267 -126 8 0 137 -60 331 -155 405 -197 462 -224 485 -231 44 -12 52 -44 20 -71 -11 -10 -20 -29 -20 -43 -1 -24 -30 -70 -46 -70 -4 0 -42 27 -85 60 -42 33 -82 60 -88 60 -6 0 -30 12 -54 27 -39 25 -153 86 -292 157 -33 17 -62 34 -65 37 -3 4 -54 32 -115 64 -60 31 -114 61 -119 66 -6 5 -16 9 -23 9 -7 0 -46 20 -86 45 -41 25 -80 45 -86 45 -7 0 -27 11 -44 24 -40 30 -240 142 -270 152 -12 4 -39 18 -59 30 -21 13 -45 24 -53 24 -9 0 -20 11 -25 24 -15 39 -30 41 -57 7 -13 -17 -30 -31 -36 -31 -11 0 -273 124 -362 172 -22 11 -58 30 -80 40 -22 11 -51 25 -65 32 -140 74 -450 226 -460 226 -7 0 -27 9 -44 19 -39 24 -94 33 -125 21z m6229 -79 c0 -17 -15 -52 -35 -82 -19 -30 -35 -61 -35 -70 0 -38 -147 -348 -214 -448 -41 -63 -54 -73 -140 -105 -37 -14 -79 -32 -94 -39 -15 -7 -72 -35 -127 -62 -55 -26 -111 -54 -125 -61 -164 -83 -333 -164 -344 -164 -8 0 -18 -5 -21 -10 -5 -9 -67 -39 -165 -82 -67 -29 -98 -45 -133 -70 -21 -15 -44 -25 -51 -22 -7 3 -21 -4 -31 -16 -10 -11 -28 -20 -40 -20 -13 0 -28 -7 -35 -15 -7 -8 -21 -15 -31 -15 -10 0 -37 -13 -61 -29 -24 -16 -70 -41 -103 -56 -33 -15 -67 -34 -76 -41 -8 -8 -36 -24 -60 -36 -44 -23 -50 -23 -391 -22 -190 1 -351 5 -357 8 -6 4 -11 17 -11 29 0 13 -9 30 -20 40 -17 14 -19 21 -10 38 6 11 23 25 38 30 50 19 157 73 222 113 36 21 101 58 145 81 44 23 125 66 180 95 104 55 299 153 325 164 8 3 22 10 30 14 8 5 40 21 70 36 30 15 71 36 90 46 19 10 150 75 290 144 140 70 262 131 270 135 8 5 51 25 95 46 72 34 253 123 410 203 33 17 150 75 260 128 110 54 203 102 206 107 8 12 51 35 67 36 7 1 12 -11 12 -28z m-6171 -9 c43 -29 59 -38 201 -109 74 -37 141 -74 148 -80 7 -7 19 -13 25 -13 16 0 318 -151 335 -167 7 -7 19 -13 25 -13 16 0 138 -61 155 -77 7 -7 19 -13 26 -13 8 0 50 -20 95 -45 45 -25 88 -45 96 -45 7 0 17 -4 20 -10 3 -5 30 -21 58 -35 29 -14 59 -30 67 -34 8 -5 49 -25 90 -46 78 -38 80 -39 145 -74 22 -12 94 -49 160 -82 66 -33 136 -70 155 -81 19 -11 109 -59 200 -106 379 -195 435 -224 440 -231 4 -5 37 -22 124 -62 38 -18 45 -39 18 -57 -12 -8 -22 -25 -22 -37 0 -12 -6 -27 -13 -33 -9 -8 -125 -12 -358 -12 l-344 -1 -70 35 c-39 20 -77 40 -85 46 -8 5 -87 43 -175 85 -88 42 -167 80 -175 85 -8 5 -34 19 -57 30 -24 11 -62 29 -85 40 -24 11 -50 25 -58 30 -8 5 -60 30 -115 56 -135 64 -466 224 -485 234 -15 8 -101 51 -226 111 -60 29 -70 40 -156 177 -54 87 -178 371 -178 409 0 8 -9 26 -20 40 -11 14 -20 31 -20 38 0 7 -7 15 -15 19 -16 6 -20 37 -8 50 10 10 49 -1 82 -22z m6109 -730 c2 -12 -7 -39 -20 -59 -12 -21 -24 -42 -25 -48 -16 -68 -28 -104 -39 -127 -8 -14 -14 -33 -14 -41 0 -25 -100 -209 -152 -279 -46 -63 -149 -148 -180 -148 -7 0 -22 -7 -32 -15 -11 -8 -27 -15 -35 -15 -9 0 -97 -40 -196 -89 -99 -49 -225 -110 -280 -136 -55 -26 -107 -51 -115 -56 -8 -5 -25 -13 -38 -19 -12 -5 -87 -41 -165 -79 -78 -37 -184 -87 -235 -110 -51 -23 -108 -53 -128 -66 -19 -13 -74 -42 -122 -65 -48 -22 -94 -45 -102 -50 -8 -5 -42 -23 -75 -39 -33 -17 -82 -44 -110 -61 -27 -16 -56 -32 -62 -35 -7 -3 -19 -7 -25 -10 -7 -3 -44 -23 -83 -45 -38 -22 -80 -44 -93 -50 -19 -8 -21 -12 -10 -30 11 -17 9 -23 -10 -42 l-23 -23 -19 23 c-20 24 -36 102 -26 127 9 24 24 17 28 -12 5 -41 28 -42 28 -1 0 41 22 63 130 134 41 26 121 82 177 124 56 41 133 97 170 123 37 27 97 73 133 103 36 29 91 67 123 84 45 25 57 36 57 55 0 14 -7 26 -19 30 -10 3 -35 21 -54 40 -20 20 -48 40 -62 45 -14 5 -25 16 -25 24 0 26 12 46 27 46 20 0 53 15 303 137 118 57 242 117 275 133 33 16 164 79 290 141 127 61 313 152 415 201 257 125 368 182 385 199 14 14 30 5 33 -19z m-6039 -19 c82 -47 144 -80 313 -166 73 -38 140 -72 148 -77 8 -5 65 -32 125 -60 61 -28 117 -55 125 -60 8 -5 44 -23 80 -41 36 -17 193 -94 350 -171 490 -241 466 -228 457 -253 -4 -10 -19 -15 -45 -15 -28 0 -45 -7 -62 -25 -13 -14 -29 -25 -37 -25 -7 0 -13 -5 -13 -10 0 -6 -11 -15 -25 -20 -29 -11 -34 -48 -7 -56 64 -20 112 -53 390 -271 37 -29 112 -83 166 -120 55 -38 116 -83 135 -101 20 -18 50 -40 66 -49 47 -24 65 -44 65 -71 0 -21 3 -23 25 -18 23 6 25 4 25 -32 0 -38 -22 -82 -41 -82 -6 0 -19 10 -29 23 -16 19 -17 25 -5 43 16 25 11 34 -21 34 -13 0 -42 13 -66 29 -24 16 -74 44 -113 63 -38 19 -89 47 -112 61 -24 15 -46 27 -50 27 -8 0 -97 44 -149 73 -16 9 -40 21 -54 27 -14 6 -38 19 -55 30 -16 11 -37 23 -45 26 -13 6 -135 67 -218 109 -23 12 -652 320 -792 388 -25 12 -47 25 -50 28 -3 3 -27 16 -55 29 -172 79 -200 97 -248 156 -47 58 -117 177 -117 200 0 6 -7 17 -15 24 -8 7 -15 21 -15 31 0 16 -19 61 -51 121 -5 10 -9 38 -9 62 0 24 -4 46 -8 48 -15 6 -52 80 -52 104 0 32 12 31 89 -13z m1691 -793 c0 -5 -7 -10 -15 -10 -8 0 -15 5 -15 10 0 6 7 10 15 10 8 0 15 -4 15 -10z m4030 -35 c0 -13 -10 -36 -23 -52 -13 -15 -31 -55 -40 -88 -20 -67 -19 -65 -78 -190 -23 -49 -52 -104 -65 -122 -13 -17 -24 -36 -24 -40 0 -13 -180 -195 -208 -211 -56 -32 -205 -104 -352 -170 -36 -17 -137 -64 -225 -106 -224 -107 -286 -136 -320 -150 -76 -32 -375 -182 -414 -208 -24 -16 -50 -28 -59 -26 -10 2 -21 28 -32 74 -27 111 -98 305 -117 320 -14 10 -16 17 -7 31 11 18 73 55 115 68 13 4 26 10 29 14 5 6 20 14 172 85 54 25 100 46 103 46 3 0 67 30 143 66 75 36 166 80 202 97 36 18 67 35 68 39 2 5 10 8 17 8 7 0 57 22 111 49 92 45 238 114 309 146 91 40 193 88 215 100 14 7 79 41 145 75 66 33 124 65 130 71 5 5 16 9 25 9 9 0 25 7 35 15 107 83 145 96 145 50z m-5419 -18 c63 -47 137 -91 216 -127 37 -18 113 -54 168 -80 55 -27 159 -76 230 -110 72 -34 227 -109 345 -168 221 -108 384 -186 410 -196 8 -3 22 -10 30 -15 8 -6 87 -44 175 -86 88 -42 172 -82 187 -90 14 -8 32 -15 40 -15 18 -1 58 -35 58 -50 0 -7 -8 -22 -18 -35 -10 -12 -24 -42 -31 -66 -6 -24 -19 -65 -26 -90 -8 -26 -15 -53 -15 -62 0 -8 -7 -28 -15 -43 -8 -16 -15 -37 -15 -46 0 -9 -5 -29 -12 -43 -13 -28 -48 -34 -68 -10 -7 8 -33 24 -59 36 -25 12 -73 35 -106 50 -101 47 -319 150 -345 164 -14 7 -38 20 -55 29 -49 25 -455 221 -520 251 -138 62 -209 106 -286 178 -53 49 -144 169 -166 217 -4 8 -18 33 -31 55 -46 73 -88 159 -106 220 -11 33 -30 73 -43 88 -31 39 -30 77 2 77 7 0 32 -15 56 -33z m1313 -128 c-8 -13 -24 -1 -24 18 0 13 3 13 15 3 8 -7 12 -16 9 -21z m686 -563 c-1 -12 -24 -46 -33 -46 -3 0 -5 15 -4 33 2 27 6 33 20 29 9 -2 17 -9 17 -16z"/> <path d="M7495 7259 c-4 -5 -18 -15 -33 -20 -18 -7 -22 -13 -14 -21 7 -7 22 -4 51 13 23 12 41 26 41 31 0 12 -38 10 -45 -3z"/> <path d="M7370 7195 c-7 -8 -21 -15 -31 -15 -10 0 -22 -6 -26 -13 -4 -7 -19 -18 -33 -24 -24 -11 -24 -12 -3 -12 12 -1 25 4 28 9 3 6 17 10 29 10 13 0 29 6 35 14 7 8 23 17 36 20 14 4 25 11 25 16 0 16 -46 12 -60 -5z"/> <path d="M7205 7110 c-4 -6 5 -10 19 -10 14 0 26 5 26 10 0 6 -9 10 -19 10 -11 0 -23 -4 -26 -10z"/> <path d="M7111 7064 c-19 -13 -27 -24 -19 -24 22 0 89 35 82 43 -12 11 -27 7 -63 -19z"/> <path d="M7015 7020 c-4 -6 7 -10 24 -10 17 0 31 5 31 10 0 6 -11 10 -24 10 -14 0 -28 -4 -31 -10z"/> <path d="M6955 6990 c-3 -5 3 -10 15 -10 12 0 18 5 15 10 -3 6 -10 10 -15 10 -5 0 -12 -4 -15 -10z"/> <path d="M6755 6900 c-3 -5 3 -10 14 -10 12 0 21 5 21 10 0 6 -6 10 -14 10 -8 0 -18 -4 -21 -10z"/> <path d="M6185 6630 c-4 -6 5 -10 19 -10 14 0 26 5 26 10 0 6 -9 10 -19 10 -11 0 -23 -4 -26 -10z"/> <path d="M6010 6540 c-12 -8 -9 -10 13 -10 15 0 27 5 27 10 0 13 -20 13 -40 0z"/> <path d="M5955 6510 c-3 -5 3 -10 14 -10 12 0 21 5 21 10 0 6 -6 10 -14 10 -8 0 -18 -4 -21 -10z"/> <path d="M5885 6479 c-4 -6 -5 -13 -2 -16 8 -7 47 7 47 18 0 13 -37 11 -45 -2z"/> <path d="M5810 6445 c-7 -8 -19 -15 -27 -15 -7 0 -16 -7 -19 -15 -4 -8 -14 -15 -23 -15 -21 0 -47 -17 -39 -25 6 -7 97 32 108 46 3 3 17 9 33 13 15 3 27 11 27 16 0 16 -46 12 -60 -5z"/> <path d="M5652 6363 c-6 -2 -10 -8 -7 -13 6 -10 45 -1 45 11 0 10 -17 11 -38 2z"/> <path d="M5467 6274 c-11 -11 3 -24 18 -18 8 4 12 10 9 15 -6 11 -18 12 -27 3z"/> <path d="M5410 6240 c-12 -8 -11 -10 8 -10 12 0 22 5 22 10 0 13 -11 13 -30 0z"/> <path d="M1696 7331 c-10 -16 132 -115 246 -171 46 -23 90 -48 99 -56 8 -8 22 -14 30 -14 8 0 34 -14 59 -30 25 -16 50 -30 55 -30 6 0 52 -20 103 -45 51 -25 98 -45 103 -45 12 0 92 -40 99 -50 3 -4 18 -10 35 -14 16 -4 32 -11 35 -14 3 -4 23 -15 45 -25 22 -11 61 -30 86 -43 26 -13 53 -24 61 -24 8 0 29 -14 46 -31 26 -25 35 -29 46 -20 10 8 16 9 21 1 3 -5 27 -19 53 -30 26 -12 59 -27 74 -35 14 -8 33 -15 41 -15 8 0 17 -7 21 -15 3 -8 15 -15 28 -15 12 0 31 -8 42 -19 27 -24 113 -71 130 -71 7 0 33 -11 57 -25 24 -14 51 -27 59 -31 8 -3 22 -10 30 -15 8 -5 22 -12 30 -15 8 -3 22 -10 30 -15 8 -5 52 -27 97 -49 45 -23 85 -45 88 -51 8 -12 65 -12 65 1 0 6 -8 14 -17 17 -10 4 -24 13 -31 20 -7 7 -19 13 -27 13 -20 0 -139 62 -148 77 -4 7 -18 13 -31 13 -13 0 -29 6 -35 14 -6 8 -34 23 -61 35 -27 12 -52 26 -55 31 -3 6 -17 10 -30 10 -13 0 -26 4 -30 9 -3 6 -27 20 -53 33 -26 13 -51 29 -55 35 -4 7 -14 13 -22 13 -13 0 -113 46 -155 71 -8 5 -22 12 -30 15 -14 5 -134 65 -170 84 -8 4 -49 24 -90 45 -41 20 -86 43 -100 50 -14 8 -54 28 -90 45 -36 17 -72 35 -80 39 -80 42 -228 111 -237 111 -7 0 -13 5 -13 10 0 6 -6 10 -13 10 -7 0 -44 16 -82 36 -39 20 -97 50 -130 67 -33 17 -62 34 -65 38 -3 4 -17 10 -32 14 -15 4 -32 13 -39 21 -6 8 -19 14 -29 14 -10 0 -23 7 -30 15 -14 17 -26 19 -34 6z"/> <path d="M3725 6301 c-6 -11 33 -36 42 -27 3 3 3 12 0 21 -7 17 -33 20 -42 6z"/> <path d="M3786 6271 c-7 -10 33 -23 47 -14 10 6 -11 23 -30 23 -6 0 -14 -4 -17 -9z"/> <path d="M7515 6575 c-22 -13 -47 -25 -56 -25 -9 0 -22 -7 -29 -15 -7 -8 -20 -15 -30 -15 -10 0 -23 -7 -30 -15 -7 -8 -23 -15 -35 -15 -12 0 -28 -7 -35 -15 -7 -8 -20 -15 -30 -15 -10 0 -23 -7 -30 -15 -7 -8 -21 -15 -31 -15 -10 0 -20 -4 -23 -9 -4 -5 -27 -19 -54 -31 -61 -28 -123 -58 -142 -69 -45 -26 -80 -41 -93 -41 -8 0 -20 -7 -27 -15 -7 -8 -20 -15 -30 -15 -10 0 -23 -7 -30 -15 -7 -8 -23 -15 -37 -15 -13 0 -26 -7 -29 -15 -4 -8 -14 -15 -23 -15 -21 0 -161 -71 -161 -82 0 -4 -8 -8 -18 -8 -10 0 -58 -20 -107 -45 -50 -25 -94 -45 -98 -45 -10 0 -71 -42 -75 -52 -2 -5 -16 -8 -32 -8 -16 0 -30 -7 -34 -15 -3 -8 -16 -15 -30 -15 -14 0 -28 -4 -31 -10 -4 -6 6 -10 24 -10 16 0 32 4 35 9 3 5 23 12 43 16 21 4 40 10 43 14 12 15 61 41 79 41 11 0 37 11 57 25 20 14 49 25 64 25 16 0 47 15 73 35 25 19 55 35 66 35 12 0 21 4 21 8 0 4 27 20 60 35 33 16 60 32 60 37 0 6 13 10 28 10 16 0 37 6 47 14 11 8 25 12 31 9 7 -2 17 5 24 16 6 12 18 21 27 21 9 0 24 6 32 13 9 7 36 22 61 32 25 10 53 25 62 33 9 8 23 12 30 10 7 -3 28 6 47 19 19 13 46 26 60 30 14 3 42 17 61 30 19 13 52 28 73 34 21 5 37 16 37 24 0 9 10 15 24 15 13 0 29 7 36 15 7 8 21 15 31 15 10 0 21 5 24 11 4 5 18 14 31 19 13 5 24 16 24 24 0 8 8 17 18 19 12 3 13 5 2 6 -8 0 -33 -10 -55 -24z"/> <path d="M1740 6600 c0 -5 5 -10 10 -10 6 0 20 -12 33 -26 12 -15 49 -40 82 -57 97 -48 160 -81 187 -99 13 -9 45 -22 69 -28 24 -7 53 -20 64 -29 11 -10 46 -28 77 -40 32 -13 62 -29 69 -37 6 -8 18 -14 26 -14 8 0 61 -23 116 -52 56 -28 118 -58 137 -66 19 -8 42 -18 50 -23 19 -11 224 -112 270 -133 46 -21 79 -41 93 -55 14 -14 87 -15 87 -1 0 6 -10 14 -22 19 -13 5 -40 21 -61 35 -21 14 -43 26 -48 26 -10 0 -48 18 -89 41 -8 5 -22 12 -30 15 -8 3 -22 9 -30 14 -16 10 -132 67 -165 81 -11 5 -29 14 -40 21 -41 23 -50 28 -65 34 -27 10 -85 36 -100 45 -8 5 -21 11 -27 14 -7 3 -19 7 -25 10 -7 3 -60 30 -118 60 -58 30 -110 55 -116 55 -6 0 -17 7 -24 15 -7 8 -21 15 -32 15 -10 0 -21 7 -24 15 -4 8 -14 15 -25 15 -10 0 -84 34 -164 75 -150 76 -165 83 -165 65z"/> <path d="M7240 5751 c-32 -17 -78 -40 -140 -71 -36 -18 -72 -37 -80 -41 -8 -5 -22 -12 -30 -15 -25 -10 -144 -66 -160 -75 -8 -5 -25 -14 -38 -19 -13 -5 -49 -22 -80 -36 -31 -15 -84 -39 -117 -55 -116 -54 -150 -70 -165 -79 -36 -22 -143 -70 -156 -70 -8 0 -14 -4 -14 -9 0 -5 -10 -13 -22 -16 -13 -4 -93 -41 -178 -82 -85 -42 -184 -89 -220 -105 -36 -17 -77 -36 -92 -44 -14 -8 -35 -14 -46 -14 -11 0 -25 -7 -32 -15 -7 -8 -20 -15 -29 -15 -9 -1 -29 -12 -46 -25 l-30 -25 32 0 c17 0 35 5 38 10 3 6 17 10 30 10 13 0 37 5 52 11 15 6 37 15 48 19 42 15 135 62 140 71 4 5 17 9 31 9 14 0 27 7 31 16 3 8 12 13 20 10 17 -7 59 13 90 43 11 11 57 34 101 51 44 17 91 39 104 48 29 22 74 42 95 42 9 0 30 10 47 23 35 25 82 49 208 102 48 20 92 43 99 51 6 8 26 14 44 14 20 0 43 10 61 25 16 14 45 30 64 36 19 6 55 22 79 35 24 13 52 24 63 24 10 0 21 7 24 15 4 8 13 15 20 15 8 0 17 7 20 15 4 8 14 15 24 15 10 0 23 7 30 15 7 8 18 15 26 15 7 0 17 6 21 13 4 7 23 25 41 40 31 25 26 36 -8 18z"/> <path d="M2146 5701 c-4 -5 2 -12 13 -16 11 -3 22 -12 25 -20 3 -8 15 -15 26 -15 11 0 23 -7 26 -15 4 -8 10 -15 16 -15 5 0 24 -11 41 -23 18 -13 59 -34 92 -47 33 -13 69 -31 81 -42 11 -10 28 -18 37 -18 9 0 19 -4 22 -10 3 -5 15 -10 25 -10 11 0 41 -13 67 -28 74 -43 424 -212 439 -212 3 0 28 -16 54 -35 26 -19 54 -35 63 -35 8 0 20 -7 27 -15 7 -8 23 -15 35 -15 12 0 40 -12 61 -26 21 -15 68 -37 104 -49 36 -12 88 -34 115 -48 111 -56 142 -69 180 -75 36 -5 39 -4 27 11 -8 9 -34 26 -58 37 -24 12 -44 26 -44 31 0 5 -11 9 -24 9 -13 0 -29 7 -36 15 -7 8 -23 15 -35 15 -12 0 -28 7 -35 15 -7 8 -19 15 -27 15 -8 0 -27 6 -41 14 -15 7 -47 23 -72 35 -44 21 -62 31 -97 51 -10 6 -25 13 -33 16 -8 3 -41 18 -72 35 -32 16 -65 29 -73 29 -9 0 -18 7 -21 15 -4 8 -15 15 -27 15 -11 0 -28 6 -36 13 -9 7 -36 22 -61 32 -25 10 -52 25 -61 32 -8 7 -22 13 -30 13 -9 0 -24 7 -35 15 -10 8 -26 15 -35 15 -9 0 -22 7 -29 15 -7 8 -21 15 -32 15 -10 0 -21 7 -24 15 -4 8 -14 15 -23 15 -9 0 -28 6 -43 14 -81 42 -156 80 -183 91 -75 32 -125 57 -130 66 -4 5 -17 9 -29 9 -13 0 -29 7 -36 15 -7 8 -22 15 -33 15 -11 0 -28 7 -38 16 -10 9 -19 11 -23 5z"/> <path d="M4061 7107 c-14 -6 -44 -36 -68 -65 -64 -78 -59 -115 25 -204 64 -68 139 -60 210 23 66 78 57 138 -34 218 -50 44 -87 52 -133 28z m75 -79 c74 -62 80 -83 33 -122 -42 -35 -90 -35 -118 0 -30 38 -26 71 10 105 34 32 52 36 75 17z"/> <path d="M5149 7096 c-19 -13 -48 -42 -63 -65 -25 -35 -28 -48 -23 -88 4 -42 12 -54 62 -100 36 -35 65 -53 81 -53 41 0 87 25 127 69 34 37 37 46 37 98 0 56 -1 58 -55 110 -46 45 -60 53 -92 53 -24 0 -52 -9 -74 -24z m126 -90 c42 -40 41 -62 -3 -103 -36 -33 -82 -31 -109 6 -37 49 -32 85 14 113 41 24 58 22 98 -16z"/> <path d="M4646 6291 c-6 -10 -21 -72 -35 -149 -4 -24 -13 -48 -19 -54 -7 -7 -12 -22 -12 -35 0 -12 -6 -40 -14 -60 -20 -53 -73 -232 -81 -270 -3 -17 -13 -37 -20 -43 -15 -13 -308 -15 -497 -4 l-108 7 0 -27 c0 -16 5 -26 15 -26 8 0 45 -15 82 -33 65 -31 102 -54 256 -160 37 -26 69 -47 72 -47 2 0 25 -15 50 -32 42 -29 46 -36 41 -62 -4 -17 -11 -33 -17 -37 -6 -3 -27 -53 -46 -110 -20 -57 -42 -113 -49 -124 -8 -11 -14 -29 -14 -41 0 -12 -7 -27 -15 -34 -8 -7 -15 -21 -15 -32 0 -10 -9 -36 -20 -56 -20 -38 -70 -143 -70 -149 0 -2 10 -3 23 -3 12 1 45 22 75 49 29 27 72 62 95 77 105 72 270 198 299 230 34 37 61 38 85 3 7 -9 37 -34 65 -55 29 -21 82 -63 118 -94 36 -30 87 -73 115 -95 27 -22 67 -57 89 -77 75 -72 93 -39 41 77 -8 17 -35 84 -61 150 -25 66 -53 130 -60 142 -8 12 -14 30 -14 39 0 16 -23 76 -41 104 -34 55 -34 62 -8 84 14 11 36 28 49 36 12 8 40 27 61 43 21 15 41 27 44 27 2 0 38 24 80 53 117 81 196 127 218 127 14 0 47 35 47 50 0 7 -34 8 -97 3 -54 -4 -111 -7 -128 -7 -16 0 -108 1 -202 2 l-172 2 -16 30 c-8 16 -15 43 -15 60 0 17 -7 47 -15 67 -8 19 -15 47 -15 62 -1 14 -7 37 -15 51 -8 14 -14 35 -15 47 0 12 -6 37 -14 55 -8 18 -29 79 -46 135 -31 100 -43 123 -54 104z m70 -530 c12 -42 29 -69 73 -114 60 -62 93 -76 189 -77 35 0 42 -3 42 -20 0 -11 -23 -41 -51 -67 -67 -64 -109 -128 -109 -169 0 -18 16 -83 37 -144 20 -60 33 -113 30 -116 -3 -4 -21 3 -39 14 -18 12 -52 30 -74 40 -23 11 -45 25 -48 31 -9 14 -72 41 -95 41 -21 0 -135 -55 -149 -73 -6 -7 -34 -24 -62 -37 -78 -37 -82 -24 -36 116 37 114 38 117 22 157 -16 43 -51 85 -124 149 -60 53 -56 65 26 73 104 10 117 14 159 50 37 32 56 64 124 209 l22 49 24 -29 c12 -16 30 -53 39 -83z"/> <path d="M3910 5551 c0 -4 12 -17 26 -27 14 -10 32 -25 39 -31 25 -24 37 -13 14 12 -13 13 -29 25 -35 25 -7 0 -14 7 -18 15 -6 16 -26 21 -26 6z"/> <path d="M4030 5459 c0 -6 9 -13 20 -16 11 -3 20 -9 20 -14 0 -5 7 -9 15 -9 10 0 7 7 -9 25 -24 26 -46 33 -46 14z"/> <path d="M4160 5373 c0 -5 18 -18 40 -31 22 -12 40 -27 40 -32 0 -6 7 -10 16 -10 10 0 2 14 -25 40 -36 36 -71 52 -71 33z"/> <path d="M4650 5012 c0 -15 -65 -82 -79 -82 -5 0 -11 -4 -13 -9 -4 -11 -95 -81 -106 -81 -4 0 -22 -14 -41 -30 -18 -17 -40 -30 -47 -30 -8 0 -14 -4 -14 -9 0 -5 -13 -14 -30 -20 -16 -5 -30 -15 -30 -20 0 -6 -6 -11 -12 -11 -7 0 -24 -12 -37 -25 -23 -25 -23 -25 -2 -25 12 0 21 5 21 10 0 6 6 10 13 10 8 0 33 14 55 30 23 17 45 30 49 30 5 0 24 15 44 33 20 17 47 39 59 47 12 8 32 24 45 35 63 54 77 64 95 70 11 4 20 11 20 16 0 28 117 -27 143 -68 4 -7 15 -13 22 -13 8 0 15 -4 15 -10 0 -5 8 -10 18 -10 12 0 6 11 -23 36 -22 20 -50 44 -61 55 -12 10 -25 19 -30 19 -4 0 -23 14 -41 32 -18 18 -33 26 -33 20z"/> <path d="M4640 4810 c-10 -19 -120 -106 -205 -162 -22 -15 -78 -54 -125 -87 -47 -33 -116 -79 -155 -102 -38 -23 -92 -58 -120 -79 -27 -20 -75 -54 -105 -75 -30 -21 -67 -51 -83 -67 -15 -15 -36 -28 -47 -28 -11 0 -20 -4 -20 -10 0 -32 97 -31 139 1 13 11 28 19 32 19 5 0 64 37 131 83 68 45 137 89 153 97 17 8 38 25 48 38 10 12 24 22 30 22 7 0 44 24 84 53 79 57 252 170 268 175 6 1 54 -28 107 -65 54 -38 130 -89 170 -114 40 -25 86 -54 102 -65 15 -10 43 -28 61 -39 19 -11 87 -56 152 -100 135 -92 188 -118 229 -113 34 4 46 34 17 45 -10 3 -25 12 -33 20 -18 15 -179 134 -202 148 -9 6 -67 45 -130 87 -63 42 -123 80 -133 84 -11 4 -46 27 -77 51 -31 24 -59 43 -63 43 -9 0 -157 114 -179 139 -24 26 -32 26 -46 1z"/> <path d="M6924 4655 c-68 -34 -99 -77 -99 -137 0 -51 18 -77 88 -129 48 -35 87 -31 135 15 55 51 76 121 51 169 -17 32 -60 77 -91 93 -33 17 -25 18 -84 -11z m69 -67 c45 -23 61 -72 35 -104 -30 -36 -49 -54 -56 -54 -18 0 -82 75 -82 96 0 21 51 74 71 74 6 0 20 -5 32 -12z"/> <path d="M4614 4501 c-74 -34 -116 -113 -95 -181 12 -42 86 -116 125 -126 17 -4 38 2 70 21 53 31 80 62 96 111 10 30 9 41 -12 81 -25 51 -78 98 -118 107 -14 4 -42 -2 -66 -13z m101 -88 c34 -39 33 -85 -2 -118 -42 -38 -77 -33 -112 16 -33 45 -32 59 7 102 17 17 36 27 54 27 19 0 37 -10 53 -27z"/> <path d="M3718 4069 c-55 -8 -101 -31 -151 -75 -43 -39 -66 -42 -93 -13 -39 45 -97 79 -131 79 -41 0 -63 -11 -120 -57 -48 -39 -58 -37 -125 23 -44 40 -72 48 -138 42 -38 -4 -61 -14 -104 -47 -35 -27 -60 -40 -68 -35 -7 5 -32 23 -56 41 -59 45 -121 46 -189 3 -26 -16 -51 -30 -56 -30 -5 0 -35 16 -66 35 -75 47 -117 42 -191 -21 -29 -24 -62 -44 -74 -44 -12 0 -37 16 -57 36 -82 85 -136 84 -235 -8 -49 -45 -56 -44 -132 23 -24 21 -56 41 -72 44 -38 8 -87 -14 -134 -61 -60 -60 -66 -83 -51 -189 7 -49 23 -162 34 -250 12 -88 33 -214 46 -280 13 -66 27 -156 30 -200 11 -129 27 -174 86 -233 60 -61 102 -77 172 -67 38 4 63 16 95 42 49 40 68 40 125 -6 44 -34 109 -47 166 -31 71 19 161 146 180 255 10 59 25 45 34 -31 9 -85 28 -122 87 -178 44 -41 54 -46 95 -46 51 0 72 9 126 51 20 16 44 29 53 29 19 0 96 -77 96 -96 0 -8 -19 -35 -42 -61 l-43 -46 -3 -93 -4 -93 49 -51 c64 -68 103 -75 187 -31 63 34 86 37 116 19 15 -10 26 -10 53 0 48 17 68 15 109 -13 52 -35 124 -35 179 2 39 26 41 26 75 10 46 -22 56 -22 100 8 44 30 61 31 94 5 30 -23 69 -26 96 -5 26 20 58 19 96 -5 40 -24 139 -27 191 -5 33 14 37 13 69 -8 49 -34 66 -38 109 -27 49 13 114 88 106 122 -13 58 -59 147 -97 191 -47 53 -87 62 -117 27 -23 -27 -59 -25 -108 5 -48 29 -66 30 -112 8 -40 -18 -66 -10 -71 24 -2 14 10 28 40 48 24 16 64 49 90 72 26 24 55 43 64 43 10 0 43 -22 74 -50 83 -72 123 -85 255 -85 127 0 147 8 247 102 64 60 69 60 123 3 17 -18 56 -50 88 -71 31 -22 57 -44 57 -49 0 -13 -73 -70 -90 -70 -9 0 -32 12 -51 26 -27 21 -42 25 -74 20 -22 -2 -60 -1 -84 4 -40 7 -48 5 -77 -18 -18 -15 -45 -48 -60 -75 -22 -41 -25 -56 -19 -95 7 -52 30 -95 70 -132 23 -21 39 -26 113 -31 66 -5 94 -3 116 8 17 9 39 12 55 8 14 -4 62 -10 106 -14 63 -6 87 -5 113 7 27 13 38 14 65 4 47 -17 159 -15 183 3 26 20 47 19 88 -6 29 -17 47 -20 98 -16 35 3 77 8 94 12 22 5 42 1 70 -14 54 -29 84 -26 134 12 89 67 77 63 126 36 l45 -24 39 23 c50 28 53 28 105 -9 43 -31 45 -31 69 -15 31 19 79 21 95 2 6 -7 43 -16 88 -20 61 -5 81 -3 101 10 35 23 80 35 88 22 9 -14 92 -48 118 -48 35 0 102 56 126 106 20 39 21 50 11 89 -6 24 -11 55 -11 68 0 13 -14 41 -30 62 -36 46 -35 65 5 84 17 8 48 29 69 48 22 18 46 33 54 33 8 0 36 -19 63 -41 48 -40 52 -41 105 -37 51 4 59 9 109 58 62 61 76 62 141 6 66 -57 114 -71 234 -71 98 0 109 2 159 30 62 34 114 91 144 155 16 37 21 72 25 187 5 165 -6 212 -69 289 -58 70 -58 77 0 139 62 66 71 87 71 173 0 155 -133 297 -296 318 -120 15 -247 -31 -312 -112 -34 -42 -69 -45 -103 -8 -13 15 -50 44 -81 64 -48 31 -73 40 -144 50 -48 7 -121 10 -164 8 -90 -5 -130 -26 -187 -94 -35 -43 -37 -49 -44 -150 -5 -58 -11 -110 -14 -115 -11 -17 -23 -9 -28 19 -3 15 -11 47 -18 72 -7 25 -16 62 -21 83 -11 45 -81 134 -128 162 -26 15 -52 20 -101 19 -72 0 -110 -17 -163 -73 -35 -36 -56 -39 -82 -10 -10 12 -39 35 -64 52 -44 30 -49 32 -173 35 -70 3 -165 1 -212 -3 -88 -7 -89 -8 -187 -87 l-28 -22 -54 38 c-71 49 -131 66 -227 66 -103 0 -165 -24 -234 -89 -30 -28 -63 -51 -74 -51 -11 0 -44 21 -73 46 -28 26 -76 58 -106 72 -49 22 -63 24 -160 20 -122 -4 -138 -11 -225 -87 -32 -28 -64 -51 -72 -51 -7 0 -37 21 -67 46 -80 69 -121 87 -214 93 -45 3 -101 3 -126 0z m2579 -110 c34 1 64 -2 67 -7 3 -5 8 -43 12 -83 3 -41 12 -91 20 -112 8 -20 14 -58 14 -83 0 -24 7 -61 15 -81 8 -19 15 -52 15 -72 1 -20 7 -54 15 -76 8 -22 15 -60 15 -85 0 -25 6 -71 14 -101 8 -31 18 -80 22 -110 3 -30 15 -88 27 -129 11 -41 21 -86 21 -100 1 -24 -1 -25 -71 -28 l-72 -3 -5 33 c-3 18 -8 51 -10 73 -3 22 -9 63 -13 90 l-8 50 -45 -1 c-93 -3 -165 -10 -176 -17 -6 -3 -13 -48 -16 -103 -4 -63 -10 -100 -19 -109 -19 -18 -125 -27 -137 -12 -11 13 7 143 27 190 6 16 11 50 11 76 0 27 7 65 15 84 8 20 15 57 15 82 0 26 5 55 11 66 5 11 17 59 25 107 8 48 18 107 23 132 5 25 19 106 31 180 29 176 24 163 62 154 18 -4 61 -6 95 -5z m-4593 -21 c22 -120 26 -149 26 -179 0 -19 6 -65 14 -104 24 -115 38 -241 45 -399 4 -101 10 -151 18 -153 21 -7 32 32 38 148 4 63 13 141 21 174 8 33 14 86 14 118 0 32 7 95 15 140 8 45 18 125 22 177 l8 95 65 0 65 0 6 -95 c7 -113 26 -243 40 -285 15 -43 29 -159 37 -315 4 -74 11 -141 16 -148 19 -30 31 12 38 126 3 64 11 151 17 192 12 79 38 317 48 435 3 39 10 76 15 83 7 7 36 12 79 12 62 0 69 -2 69 -20 0 -11 -4 -28 -10 -38 -5 -9 -14 -51 -20 -92 -11 -85 -24 -169 -45 -285 -9 -44 -15 -103 -15 -131 0 -28 -5 -76 -10 -105 -6 -30 -15 -88 -21 -129 -5 -41 -15 -118 -22 -170 l-12 -95 -70 -3 c-112 -5 -111 -5 -123 90 -6 46 -20 173 -32 283 -11 110 -23 225 -26 255 -6 56 -19 84 -35 74 -5 -3 -9 -62 -9 -132 -1 -91 -5 -134 -15 -152 -9 -17 -14 -56 -15 -117 0 -51 -7 -118 -15 -150 -8 -31 -15 -79 -15 -105 l0 -48 -90 0 c-89 0 -91 0 -102 28 -6 15 -14 81 -18 147 -4 66 -13 133 -19 148 -6 16 -11 47 -11 71 0 23 -6 66 -14 96 -8 30 -17 84 -21 120 -18 178 -55 382 -75 421 -17 30 0 39 77 39 57 0 63 -2 67 -22z m1008 -23 c-6 -69 -7 -672 -2 -850 l5 -170 -76 -3 c-56 -2 -78 1 -81 10 -3 7 -1 105 4 218 4 113 7 345 7 515 0 171 0 314 0 318 1 4 34 7 74 5 l72 -3 -3 -40z m354 15 c7 -14 20 -54 29 -90 9 -36 23 -85 31 -110 8 -25 14 -56 14 -70 1 -14 7 -36 15 -50 8 -14 14 -39 15 -56 0 -16 7 -39 15 -50 8 -10 15 -29 15 -42 0 -13 5 -33 11 -44 7 -12 15 -55 20 -96 8 -76 32 -123 52 -103 9 9 -5 532 -18 673 -5 58 8 68 87 68 l53 0 -1 -533 -1 -532 -70 -3 c-79 -3 -103 10 -103 55 0 28 -25 113 -46 156 -8 16 -14 43 -14 61 0 18 -7 41 -15 52 -8 10 -15 35 -15 55 0 19 -7 44 -15 55 -8 10 -15 36 -15 56 0 20 -5 49 -11 65 -6 15 -15 51 -20 78 -19 113 -33 156 -49 153 -11 -3 -15 -16 -14 -58 0 -30 2 -145 3 -255 2 -110 6 -258 10 -330 5 -75 4 -135 -1 -142 -11 -14 -118 -6 -134 11 -7 8 -8 149 -2 456 4 245 4 475 0 512 -5 40 -5 71 1 77 5 5 44 9 85 8 71 -2 77 -4 88 -27z m799 20 l73 0 50 -50 50 -49 4 -98 c3 -54 3 -104 0 -111 -3 -9 -22 -12 -66 -10 l-61 3 3 74 c2 65 0 77 -20 98 -18 20 -31 23 -90 23 -59 0 -69 -3 -82 -22 -11 -19 -14 -88 -12 -387 l1 -363 24 -19 c36 -30 118 -26 154 6 27 25 27 27 27 150 l0 125 -45 0 -46 0 3 68 3 67 100 7 c55 3 102 4 105 1 3 -2 4 -111 2 -241 l-3 -237 -37 -33 c-20 -18 -44 -39 -52 -45 -9 -8 -58 -12 -141 -12 l-126 0 -43 39 c-71 64 -79 88 -69 203 14 159 19 532 9 601 -14 85 1 133 55 177 38 32 101 48 143 38 8 -2 47 -3 87 -3z m2083 -48 c4 -77 -2 -82 -109 -75 l-89 6 0 -472 0 -471 -62 0 c-35 0 -69 4 -77 9 -12 8 -13 59 -5 333 5 177 9 384 9 458 l0 135 -81 3 -82 3 -6 31 c-7 35 -8 83 -2 89 2 2 116 4 253 4 l248 0 3 -53z m1132 8 c25 -21 50 -52 56 -71 17 -50 17 -322 0 -362 -7 -19 -28 -40 -49 -52 -21 -11 -37 -24 -37 -30 1 -5 19 -22 41 -38 22 -15 43 -37 48 -50 5 -12 11 -110 13 -218 l6 -197 -72 -4 c-39 -3 -73 -3 -75 -1 -3 2 -3 95 -2 207 2 133 -1 206 -8 210 -27 17 -157 44 -166 35 -6 -6 -8 -94 -6 -230 l3 -220 -73 3 -74 3 -3 533 -2 533 177 -6 178 -7 45 -38z m622 24 c13 -10 38 -36 55 -59 28 -37 31 -47 33 -125 2 -47 2 -91 1 -98 -1 -10 -20 -12 -73 -10 l-73 3 0 76 c0 98 -9 109 -86 109 -93 0 -99 -10 -99 -151 l0 -117 48 -30 c26 -16 76 -46 112 -66 82 -46 95 -55 136 -90 l34 -30 0 -175 c0 -196 1 -191 -74 -247 -38 -28 -43 -29 -156 -29 l-117 0 -47 38 c-61 51 -72 75 -80 178 -8 102 -5 106 77 110 71 3 78 -5 70 -82 -5 -49 -2 -61 18 -88 20 -28 28 -31 74 -31 76 0 82 10 87 158 6 139 5 141 -76 183 -64 33 -170 107 -202 140 -29 30 -29 33 -35 172 -7 162 4 204 65 250 38 30 77 36 197 32 66 -2 93 -7 111 -21z m-3085 -31 l51 -48 5 -97 c5 -70 3 -98 -6 -105 -10 -7 -56 -9 -116 -4 -11 1 -13 14 -8 65 5 55 3 68 -14 90 -18 23 -28 26 -78 26 -80 0 -96 -18 -91 -103 2 -34 3 -83 2 -109 -2 -44 1 -49 42 -82 24 -20 47 -36 52 -36 5 0 40 -20 77 -45 38 -25 72 -45 76 -45 4 0 20 -13 36 -30 l28 -29 -2 -178 c-2 -190 -7 -212 -58 -238 -12 -6 -29 -17 -38 -25 -14 -11 -47 -15 -135 -15 l-118 0 -48 40 c-61 52 -72 87 -65 195 l6 85 60 7 c36 5 63 4 69 -2 6 -6 9 -42 8 -81 -3 -62 0 -75 19 -95 18 -19 33 -24 76 -24 74 0 86 20 94 165 l7 110 -32 27 c-17 15 -35 28 -40 28 -4 0 -28 14 -53 30 -24 17 -46 30 -49 30 -13 0 -122 91 -137 114 -14 21 -17 53 -17 181 l0 156 46 44 46 45 128 0 127 0 50 -47z m632 0 l52 -48 10 -99 c6 -59 6 -103 1 -108 -5 -5 -38 -8 -73 -6 l-64 3 3 76 c4 71 2 78 -19 93 -26 18 -124 22 -149 6 -12 -8 -14 -31 -12 -132 2 -68 8 -129 14 -135 10 -12 165 -110 223 -141 13 -7 35 -26 50 -44 l26 -31 -3 -177 c-3 -175 -3 -178 -28 -202 -60 -57 -78 -63 -196 -63 -106 0 -112 1 -148 28 -84 65 -87 70 -84 187 l3 105 73 3 72 3 0 -83 c0 -99 13 -118 83 -118 34 0 49 6 70 28 26 27 27 32 27 145 0 112 -1 118 -22 127 -24 10 -32 15 -106 63 -24 15 -45 27 -48 27 -9 0 -113 79 -134 102 -18 20 -20 35 -20 181 l0 158 51 50 50 49 123 0 122 0 53 -47z m741 -276 c-7 -51 -21 -125 -31 -164 -11 -40 -19 -84 -19 -99 0 -42 -41 -165 -54 -161 -8 3 -11 71 -11 234 0 258 -1 254 75 293 49 25 54 10 40 -103z m-515 49 c14 -21 16 -69 16 -350 0 -343 6 -397 47 -442 11 -11 24 -30 31 -42 6 -12 32 -33 57 -48 43 -25 44 -27 28 -45 -18 -21 -49 -25 -59 -9 -3 6 -35 10 -71 10 -48 0 -75 -6 -103 -22 l-37 -21 -57 34 c-31 19 -59 40 -62 47 -3 8 21 42 54 78 86 94 93 115 101 278 10 186 4 207 -90 334 -12 16 -20 37 -18 46 3 18 129 175 140 176 4 0 15 -11 23 -24z m-726 -150 c19 -44 92 -149 111 -161 28 -17 -10 -80 -45 -73 -10 1 -25 24 -35 50 -9 25 -37 72 -62 105 -64 84 -64 83 -37 104 36 27 46 24 68 -25z m2565 -136 c20 -22 36 -47 36 -55 0 -17 -74 -58 -85 -47 -12 13 -35 74 -35 96 0 24 17 46 36 46 6 0 28 -18 48 -40z m-3093 -21 l22 -32 -22 -18 c-38 -31 -51 -24 -51 24 0 67 16 75 51 26z m2078 -441 c5 -13 37 -51 71 -86 34 -34 60 -65 57 -69 -3 -3 -28 -9 -54 -14 -26 -5 -60 -18 -75 -29 -33 -24 -47 -25 -77 -4 -17 12 -35 15 -73 10 -50 -7 -78 3 -78 28 0 6 18 21 39 33 22 13 64 52 93 88 56 68 83 80 97 43z m-386 -57 c31 -35 55 -78 45 -85 -1 -1 -16 -12 -32 -24 -16 -12 -40 -22 -54 -22 -31 0 -112 38 -112 52 0 17 90 118 105 118 7 0 28 -18 48 -39z m-2340 -11 c25 -22 60 -47 79 -55 51 -23 71 -42 64 -61 -5 -14 -15 -15 -57 -10 -37 5 -57 3 -73 -7 -39 -26 -60 -24 -110 10 -26 18 -52 33 -57 33 -5 0 -9 7 -9 16 0 23 80 114 100 114 10 0 38 -18 63 -40z m-372 -24 c27 -25 63 -47 79 -51 41 -9 46 -22 19 -51 -23 -25 -72 -33 -84 -14 -3 6 -17 10 -30 10 -13 0 -27 -4 -30 -10 -3 -5 -21 -10 -39 -10 -24 0 -41 9 -66 35 -29 30 -31 36 -20 52 26 35 85 83 104 83 10 0 40 -20 67 -44z m3463 -28 c8 -12 13 -25 10 -29 -7 -13 -116 -69 -133 -69 -18 0 -61 39 -61 55 0 6 19 21 43 33 23 13 53 29 66 37 28 16 51 7 75 -27z m-1504 -46 c0 -11 -41 -48 -61 -55 -15 -5 -69 38 -69 56 0 4 29 7 65 7 36 0 65 -4 65 -8z m-1705 -88 c35 -35 21 -62 -29 -56 -20 2 -43 -1 -51 -8 -29 -24 -12 -78 28 -93 29 -11 40 3 21 24 -17 18 -17 21 -1 36 13 13 23 15 44 7 36 -12 42 -58 14 -94 -17 -21 -28 -25 -70 -25 -43 0 -52 4 -73 29 -53 68 -39 135 41 188 35 24 46 23 76 -8z m826 10 c8 -10 16 -49 19 -88 l5 -71 35 -5 c29 -4 35 -9 35 -30 0 -23 -4 -25 -56 -28 -37 -2 -59 2 -66 10 -6 7 -13 54 -15 104 -6 112 9 149 43 108z m1198 2 c7 -8 11 -28 9 -45 -4 -44 13 -40 40 7 24 43 56 62 75 43 13 -13 -6 -52 -40 -85 -30 -28 -29 -34 11 -79 23 -25 32 -44 29 -57 -9 -35 -52 -18 -76 29 -17 34 -40 40 -32 9 7 -28 -16 -54 -40 -44 -12 4 -15 26 -15 114 0 60 3 112 7 115 10 11 19 8 32 -7z m725 -2 c3 -9 6 -60 6 -115 0 -83 -3 -101 -16 -106 -9 -3 -24 -2 -33 4 -13 9 -15 26 -12 104 2 52 7 102 12 112 12 21 35 22 43 1z m544 -42 c-3 -25 -6 -27 -45 -24 -38 3 -43 1 -49 -22 -11 -43 3 -76 31 -76 21 0 24 4 20 23 -3 12 -1 29 5 37 8 13 13 13 37 0 33 -19 40 -42 18 -63 -8 -9 -15 -20 -15 -26 0 -15 -34 -31 -64 -31 -33 0 -106 75 -106 108 0 29 45 89 84 113 27 16 32 16 58 3 23 -12 29 -21 26 -42z m-3737 25 c19 -12 38 -33 44 -45 5 -12 13 -22 17 -22 5 0 8 -13 8 -30 0 -16 -4 -30 -10 -30 -5 0 -10 -6 -10 -12 -1 -40 -88 -78 -144 -64 -26 6 -26 8 -26 100 0 52 3 101 6 110 9 24 75 20 115 -7z m195 12 c4 -7 10 -52 13 -101 7 -97 -1 -123 -35 -116 -17 3 -19 14 -22 102 -1 55 0 106 2 113 7 16 32 17 42 2z m433 -6 c20 -17 22 -26 19 -113 -3 -91 -4 -95 -27 -98 -37 -6 -46 13 -48 101 -4 128 7 149 56 110z m261 2 c18 -21 8 -48 -20 -55 -24 -6 -25 -8 -22 -78 4 -69 3 -71 -21 -78 -42 -10 -49 2 -45 79 3 69 2 71 -22 77 -25 6 -36 29 -26 56 8 20 139 20 156 -1z m184 -10 c9 -13 16 -30 16 -37 1 -7 9 -31 20 -53 37 -76 18 -145 -25 -92 -27 34 -54 34 -81 0 -19 -24 -24 -26 -38 -14 -17 15 -13 54 9 81 7 8 16 26 20 40 14 51 39 100 51 100 6 0 19 -11 28 -25z m575 -1 c12 -15 21 -32 21 -39 0 -12 21 -25 40 -25 4 0 17 20 29 45 12 25 26 45 31 45 12 0 32 -48 25 -60 -3 -4 0 -33 6 -64 12 -66 6 -92 -23 -102 -26 -8 -40 12 -32 48 6 32 -15 50 -23 18 -7 -28 -44 -23 -58 8 -16 35 -28 26 -21 -17 6 -42 -11 -68 -38 -58 -12 5 -14 26 -12 109 2 57 4 106 5 111 2 16 31 5 50 -19z m359 -18 c12 -24 22 -50 22 -59 0 -9 4 -19 10 -22 16 -10 42 -72 38 -92 -2 -10 -13 -19 -26 -21 -18 -3 -25 3 -33 27 -9 26 -16 31 -43 31 -26 0 -34 -5 -43 -31 -13 -32 -29 -35 -47 -6 -8 12 -4 29 16 69 14 29 31 71 38 93 7 22 15 43 17 48 10 18 31 3 51 -37z m286 10 c41 -38 44 -53 16 -89 -25 -31 -25 -38 -1 -59 13 -11 18 -24 14 -37 -9 -35 -42 -22 -76 32 -21 33 -37 35 -37 5 0 -32 -15 -52 -34 -45 -13 5 -16 24 -16 105 0 111 6 122 61 122 29 0 46 -8 73 -34z m514 5 c4 -26 -14 -43 -38 -36 -8 2 -22 0 -30 -5 -13 -8 -13 -10 0 -14 8 -3 24 -6 34 -8 31 -5 30 -27 -3 -45 -39 -23 -39 -31 2 -35 40 -4 52 -42 17 -53 -24 -8 -109 2 -111 13 -5 32 -5 173 0 181 11 17 54 30 91 28 29 -2 36 -6 38 -26z m240 -3 c2 -19 -2 -28 -18 -33 -19 -6 -20 -11 -14 -81 l7 -75 -39 3 c-38 3 -39 4 -38 43 0 22 2 54 5 70 4 27 1 30 -28 33 -35 4 -48 24 -32 53 9 17 19 19 82 17 70 -3 72 -4 75 -30z m302 19 c9 -7 26 -29 39 -50 26 -42 44 -35 35 13 -6 32 9 55 30 47 12 -5 16 -23 18 -79 2 -99 -2 -132 -15 -140 -14 -9 -22 -1 -46 43 -10 19 -26 36 -35 37 -14 3 -17 -3 -14 -33 3 -40 -16 -63 -45 -52 -13 5 -15 22 -12 104 3 54 4 104 5 111 0 15 20 15 40 -1z"/> <path d="M6245 3766 c-8 -19 -15 -66 -15 -103 -1 -37 -5 -88 -11 -113 -5 -25 -13 -79 -18 -120 -4 -41 -15 -90 -25 -108 -9 -18 -16 -45 -14 -60 3 -24 7 -27 38 -25 89 5 149 16 154 30 3 7 -3 51 -13 96 -19 78 -36 209 -50 361 -7 80 -24 95 -46 42z"/> <path d="M6834 3833 c-10 -3 -12 -379 -3 -388 11 -10 127 12 153 28 l26 17 0 160 c0 142 -2 160 -17 168 -18 9 -142 21 -159 15z"/> <path d="M2940 2570 c0 -49 1 -50 30 -50 23 0 33 6 42 25 15 33 -12 75 -47 75 -23 0 -25 -3 -25 -50z"/> <path d="M5216 2621 c-10 -16 5 -41 25 -41 11 0 22 7 26 16 9 24 -38 47 -51 25z"/> <path d="M2505 2663 c-32 -12 -82 -15 -260 -14 -121 0 -301 -4 -399 -10 -167 -9 -220 -20 -199 -40 14 -13 843 -12 889 2 53 16 92 6 100 -26 14 -58 -30 -86 -104 -66 -35 10 -144 12 -437 10 -214 -2 -409 -3 -431 -3 -38 -1 -40 -2 -23 -14 31 -22 177 -32 479 -32 157 -1 308 -6 335 -11 127 -24 139 -24 178 10 42 38 63 90 48 120 -17 31 -93 91 -115 91 -12 -1 -39 -8 -61 -17z"/> <path d="M7031 2634 l-24 -17 24 -10 c35 -14 652 -32 692 -20 l32 9 -53 18 c-71 24 -84 25 -387 32 -237 5 -262 4 -284 -12z"/> <path d="M6980 2585 c-13 -16 -6 -65 10 -65 6 0 10 18 10 40 0 44 -2 47 -20 25z"/> <path d="M7061 2512 c-49 -8 -66 -29 -29 -36 80 -17 667 -10 685 7 4 4 2 12 -5 19 -12 12 -576 21 -651 10z"/> <path d="M4643 2263 c-25 -5 -106 -77 -122 -110 -20 -40 -12 -74 29 -129 72 -96 127 -104 206 -32 84 77 84 147 -1 227 -52 49 -63 53 -112 44z m80 -89 c26 -25 47 -51 47 -58 0 -20 -90 -126 -107 -126 -5 0 -29 25 -55 55 -52 62 -53 83 -7 115 15 11 31 29 34 40 10 31 36 23 88 -26z"/> </g> </svg>